# MagicaVoxel @ Ephtracy

# material
mtllib untitled.mtl
usemtl palette

# normals
vn -1 0 0
vn 1 0 0
vn 0 0 1
vn 0 0 -1
vn 0 -1 0
vn 0 1 0

# texcoords
vt 0.00195313 0.5
vt 0.0332031 0.5
vt 0.0605469 0.5
vt 0.634766 0.5
vt 0.962891 0.5
vt 0.994141 0.5

# verts
v -10 9 0.5
v -10 9 -0.5
v -10 10 0.5
v -10 10 -0.5
v -8 9 0.5
v -8 9 -0.5
v -8 10 0.5
v -8 10 -0.5
v -6 9 0.5
v -6 9 -0.5
v -6 10 0.5
v -6 10 -0.5
v -3 12 0.5
v -3 12 -0.5
v -3 13 0.5
v -3 13 -0.5
v -2 0 0.5
v -2 0 -0.5
v -2 1 0.5
v -2 1 -0.5
v -2 2 0.5
v -2 2 -0.5
v -2 3 0.5
v -2 3 -0.5
v -2 4 0.5
v -2 4 -0.5
v -2 5 0.5
v -2 5 -0.5
v -2 6 1.5
v -2 6 -1.5
v -2 7 0.5
v -2 7 -0.5
v -2 8 1.5
v -2 8 0.5
v -2 9 1.5
v -2 9 -0.5
v -2 10 1.5
v -2 10 -1.5
v -2 11 1.5
v -2 11 0.5
v -2 11 -1.5
v -2 12 1.5
v -2 12 0.5
v -2 12 -0.5
v -2 13 1.5
v -2 13 0.5
v -2 13 -0.5
v -2 14 1.5
v -2 14 -1.5
v 1 0 0.5
v 1 0 -0.5
v 1 1 0.5
v 1 1 -0.5
v 1 2 0.5
v 1 2 -0.5
v 1 3 0.5
v 1 3 -0.5
v 1 4 0.5
v 1 4 -0.5
v 1 5 0.5
v 1 5 -0.5
v 4 9 0.5
v 4 9 -0.5
v 4 10 0.5
v 4 10 -0.5
v 7 9 0.5
v 7 9 -0.5
v 7 10 0.5
v 7 10 -0.5
v 9 9 0.5
v 9 9 -0.5
v 9 10 0.5
v 9 10 -0.5
v -9 9 0.5
v -9 9 -0.5
v -9 10 0.5
v -9 10 -0.5
v -7 9 0.5
v -7 9 -0.5
v -7 10 0.5
v -7 10 -0.5
v -4 9 0.5
v -4 9 -0.5
v -4 10 0.5
v -4 10 -0.5
v -1 0 0.5
v -1 0 -0.5
v -1 1 0.5
v -1 1 -0.5
v -1 2 0.5
v -1 2 -0.5
v -1 3 0.5
v -1 3 -0.5
v -1 4 0.5
v -1 4 -0.5
v -1 5 0.5
v -1 5 -0.5
v 2 0 0.5
v 2 0 -0.5
v 2 1 0.5
v 2 1 -0.5
v 2 2 0.5
v 2 2 -0.5
v 2 3 0.5
v 2 3 -0.5
v 2 4 0.5
v 2 4 -0.5
v 2 5 0.5
v 2 5 -0.5
v 2 6 1.5
v 2 6 -1.5
v 2 7 0.5
v 2 7 -0.5
v 2 9 0.5
v 2 9 -0.5
v 2 10 1.5
v 2 10 -1.5
v 2 11 1.5
v 2 11 -1.5
v 2 12 1.5
v 2 12 0.5
v 2 12 -0.5
v 2 13 1.5
v 2 13 0.5
v 2 13 -0.5
v 2 14 1.5
v 2 14 -1.5
v 3 12 0.5
v 3 12 -0.5
v 3 13 0.5
v 3 13 -0.5
v 6 9 0.5
v 6 9 -0.5
v 6 10 0.5
v 6 10 -0.5
v 8 9 0.5
v 8 9 -0.5
v 8 10 0.5
v 8 10 -0.5
v 10 9 0.5
v 10 9 -0.5
v 10 10 0.5
v 10 10 -0.5
v -2 6 1.5
v -2 8 1.5
v -2 9 1.5
v -2 10 1.5
v -2 11 1.5
v -2 12 1.5
v -2 13 1.5
v -2 14 1.5
v -1 6 1.5
v -1 8 1.5
v -1 9 1.5
v -1 12 1.5
v -1 13 1.5
v 0 7 1.5
v 0 8 1.5
v 0 10 1.5
v 0 11 1.5
v 0 12 1.5
v 1 6 1.5
v 1 7 1.5
v 1 8 1.5
v 1 10 1.5
v 1 12 1.5
v 1 13 1.5
v 2 6 1.5
v 2 10 1.5
v 2 11 1.5
v 2 12 1.5
v 2 13 1.5
v 2 14 1.5
v -10 9 0.5
v -10 10 0.5
v -9 9 0.5
v -9 10 0.5
v -8 9 0.5
v -8 10 0.5
v -7 9 0.5
v -7 10 0.5
v -6 9 0.5
v -6 10 0.5
v -4 9 0.5
v -4 10 0.5
v -3 12 0.5
v -3 13 0.5
v -2 0 0.5
v -2 1 0.5
v -2 2 0.5
v -2 3 0.5
v -2 4 0.5
v -2 5 0.5
v -2 12 0.5
v -2 13 0.5
v -1 0 0.5
v -1 1 0.5
v -1 2 0.5
v -1 3 0.5
v -1 4 0.5
v -1 5 0.5
v 1 0 0.5
v 1 1 0.5
v 1 2 0.5
v 1 3 0.5
v 1 4 0.5
v 1 5 0.5
v 2 0 0.5
v 2 1 0.5
v 2 2 0.5
v 2 3 0.5
v 2 4 0.5
v 2 5 0.5
v 2 12 0.5
v 2 13 0.5
v 3 12 0.5
v 3 13 0.5
v 4 9 0.5
v 4 10 0.5
v 6 9 0.5
v 6 10 0.5
v 7 9 0.5
v 7 10 0.5
v 8 9 0.5
v 8 10 0.5
v 9 9 0.5
v 9 10 0.5
v 10 9 0.5
v 10 10 0.5
v -10 9 -0.5
v -10 10 -0.5
v -9 9 -0.5
v -9 10 -0.5
v -8 9 -0.5
v -8 10 -0.5
v -7 9 -0.5
v -7 10 -0.5
v -6 9 -0.5
v -6 10 -0.5
v -4 9 -0.5
v -4 10 -0.5
v -3 12 -0.5
v -3 13 -0.5
v -2 0 -0.5
v -2 1 -0.5
v -2 2 -0.5
v -2 3 -0.5
v -2 4 -0.5
v -2 5 -0.5
v -2 12 -0.5
v -2 13 -0.5
v -1 0 -0.5
v -1 1 -0.5
v -1 2 -0.5
v -1 3 -0.5
v -1 4 -0.5
v -1 5 -0.5
v 1 0 -0.5
v 1 1 -0.5
v 1 2 -0.5
v 1 3 -0.5
v 1 4 -0.5
v 1 5 -0.5
v 2 0 -0.5
v 2 1 -0.5
v 2 2 -0.5
v 2 3 -0.5
v 2 4 -0.5
v 2 5 -0.5
v 2 12 -0.5
v 2 13 -0.5
v 3 12 -0.5
v 3 13 -0.5
v 4 9 -0.5
v 4 10 -0.5
v 6 9 -0.5
v 6 10 -0.5
v 7 9 -0.5
v 7 10 -0.5
v 8 9 -0.5
v 8 10 -0.5
v 9 9 -0.5
v 9 10 -0.5
v 10 9 -0.5
v 10 10 -0.5
v -2 6 -1.5
v -2 10 -1.5
v -2 11 -1.5
v -2 14 -1.5
v 2 6 -1.5
v 2 10 -1.5
v 2 11 -1.5
v 2 14 -1.5
v -2 0 0.5
v -1 0 0.5
v 1 0 0.5
v 2 0 0.5
v -2 0 -0.5
v -1 0 -0.5
v 1 0 -0.5
v 2 0 -0.5
v -2 2 0.5
v -1 2 0.5
v 1 2 0.5
v 2 2 0.5
v -2 2 -0.5
v -1 2 -0.5
v 1 2 -0.5
v 2 2 -0.5
v -2 4 0.5
v -1 4 0.5
v 1 4 0.5
v 2 4 0.5
v -2 4 -0.5
v -1 4 -0.5
v 1 4 -0.5
v 2 4 -0.5
v -2 6 1.5
v -1 6 1.5
v 1 6 1.5
v 2 6 1.5
v -1 6 0.5
v 1 6 0.5
v -2 6 -1.5
v 2 6 -1.5
v -10 9 0.5
v -9 9 0.5
v -8 9 0.5
v -7 9 0.5
v -6 9 0.5
v -4 9 0.5
v 4 9 0.5
v 6 9 0.5
v 7 9 0.5
v 8 9 0.5
v 9 9 0.5
v 10 9 0.5
v -10 9 -0.5
v -9 9 -0.5
v -8 9 -0.5
v -7 9 -0.5
v -6 9 -0.5
v -4 9 -0.5
v 4 9 -0.5
v 6 9 -0.5
v 7 9 -0.5
v 8 9 -0.5
v 9 9 -0.5
v 10 9 -0.5
v -2 11 1.5
v 0 11 1.5
v 2 11 1.5
v -2 11 0.5
v 0 11 0.5
v -2 11 -1.5
v 2 11 -1.5
v -3 12 0.5
v -2 12 0.5
v 2 12 0.5
v 3 12 0.5
v -3 12 -0.5
v -2 12 -0.5
v 2 12 -0.5
v 3 12 -0.5
v -2 1 0.5
v -1 1 0.5
v 1 1 0.5
v 2 1 0.5
v -2 1 -0.5
v -1 1 -0.5
v 1 1 -0.5
v 2 1 -0.5
v -2 3 0.5
v -1 3 0.5
v 1 3 0.5
v 2 3 0.5
v -2 3 -0.5
v -1 3 -0.5
v 1 3 -0.5
v 2 3 -0.5
v -2 5 0.5
v -1 5 0.5
v 1 5 0.5
v 2 5 0.5
v -2 5 -0.5
v -1 5 -0.5
v 1 5 -0.5
v 2 5 -0.5
v -2 10 1.5
v 0 10 1.5
v 1 10 1.5
v 2 10 1.5
v -10 10 0.5
v -9 10 0.5
v -8 10 0.5
v -7 10 0.5
v -6 10 0.5
v -4 10 0.5
v -1 10 0.5
v 0 10 0.5
v 4 10 0.5
v 6 10 0.5
v 7 10 0.5
v 8 10 0.5
v 9 10 0.5
v 10 10 0.5
v -10 10 -0.5
v -9 10 -0.5
v -8 10 -0.5
v -7 10 -0.5
v -6 10 -0.5
v -4 10 -0.5
v -1 10 -0.5
v 1 10 -0.5
v 4 10 -0.5
v 6 10 -0.5
v 7 10 -0.5
v 8 10 -0.5
v 9 10 -0.5
v 10 10 -0.5
v -2 10 -1.5
v 2 10 -1.5
v -3 13 0.5
v -2 13 0.5
v 2 13 0.5
v 3 13 0.5
v -3 13 -0.5
v -2 13 -0.5
v 2 13 -0.5
v 3 13 -0.5
v -2 14 1.5
v 2 14 1.5
v -2 14 -1.5
v 2 14 -1.5

# faces
f 3/2/1 2/2/1 1/2/1
f 4/2/1 2/2/1 3/2/1
f 7/1/1 6/1/1 5/1/1
f 8/1/1 6/1/1 7/1/1
f 11/1/1 10/1/1 9/1/1
f 12/1/1 10/1/1 11/1/1
f 15/2/1 14/2/1 13/2/1
f 16/2/1 14/2/1 15/2/1
f 19/2/1 18/2/1 17/2/1
f 20/2/1 18/2/1 19/2/1
f 23/6/1 22/6/1 21/6/1
f 24/6/1 22/6/1 23/6/1
f 27/6/1 26/6/1 25/6/1
f 28/6/1 26/6/1 27/6/1
f 31/1/1 30/1/1 29/1/1
f 32/1/1 30/1/1 31/1/1
f 33/1/1 31/1/1 29/1/1
f 34/5/1 32/5/1 31/5/1
f 34/1/1 31/1/1 33/1/1
f 35/5/1 34/5/1 33/5/1
f 36/1/1 30/1/1 32/1/1
f 36/5/1 34/5/1 35/5/1
f 36/5/1 32/5/1 34/5/1
f 37/1/1 36/1/1 35/1/1
f 38/1/1 30/1/1 36/1/1
f 38/1/1 36/1/1 37/1/1
f 42/3/1 40/3/1 39/3/1
f 43/2/1 41/2/1 40/2/1
f 43/3/1 40/3/1 42/3/1
f 44/2/1 41/2/1 43/2/1
f 45/6/1 43/6/1 42/6/1
f 46/6/1 43/6/1 45/6/1
f 47/2/1 41/2/1 44/2/1
f 48/2/1 46/2/1 45/2/1
f 48/2/1 47/2/1 46/2/1
f 49/2/1 41/2/1 47/2/1
f 49/2/1 47/2/1 48/2/1
f 52/2/1 51/2/1 50/2/1
f 53/2/1 51/2/1 52/2/1
f 56/6/1 55/6/1 54/6/1
f 57/6/1 55/6/1 56/6/1
f 60/6/1 59/6/1 58/6/1
f 61/6/1 59/6/1 60/6/1
f 64/1/1 63/1/1 62/1/1
f 65/1/1 63/1/1 64/1/1
f 68/1/1 67/1/1 66/1/1
f 69/1/1 67/1/1 68/1/1
f 72/2/1 71/2/1 70/2/1
f 73/2/1 71/2/1 72/2/1
f 74/2/2 75/2/2 76/2/2
f 76/2/2 75/2/2 77/2/2
f 78/1/2 79/1/2 80/1/2
f 80/1/2 79/1/2 81/1/2
f 82/1/2 83/1/2 84/1/2
f 84/1/2 83/1/2 85/1/2
f 86/2/2 87/2/2 88/2/2
f 88/2/2 87/2/2 89/2/2
f 90/6/2 91/6/2 92/6/2
f 92/6/2 91/6/2 93/6/2
f 94/6/2 95/6/2 96/6/2
f 96/6/2 95/6/2 97/6/2
f 98/2/2 99/2/2 100/2/2
f 100/2/2 99/2/2 101/2/2
f 102/6/2 103/6/2 104/6/2
f 104/6/2 103/6/2 105/6/2
f 106/6/2 107/6/2 108/6/2
f 108/6/2 107/6/2 109/6/2
f 110/1/2 111/1/2 112/1/2
f 112/1/2 111/1/2 113/1/2
f 110/1/2 112/1/2 114/1/2
f 112/5/2 113/5/2 114/5/2
f 113/1/2 111/1/2 115/1/2
f 114/5/2 113/5/2 115/5/2
f 110/1/2 114/1/2 116/1/2
f 114/1/2 115/1/2 116/1/2
f 115/1/2 111/1/2 117/1/2
f 116/1/2 115/1/2 117/1/2
f 118/2/2 119/2/2 120/2/2
f 120/2/2 119/2/2 121/2/2
f 121/2/2 119/2/2 122/2/2
f 120/6/2 121/6/2 123/6/2
f 123/6/2 121/6/2 124/6/2
f 122/2/2 119/2/2 125/2/2
f 123/2/2 124/2/2 126/2/2
f 124/2/2 125/2/2 126/2/2
f 125/2/2 119/2/2 127/2/2
f 126/2/2 125/2/2 127/2/2
f 128/2/2 129/2/2 130/2/2
f 130/2/2 129/2/2 131/2/2
f 132/1/2 133/1/2 134/1/2
f 134/1/2 133/1/2 135/1/2
f 136/1/2 137/1/2 138/1/2
f 138/1/2 137/1/2 139/1/2
f 140/2/2 141/2/2 142/2/2
f 142/2/2 141/2/2 143/2/2
f 152/1/3 145/1/3 144/1/3
f 153/5/3 146/5/3 145/5/3
f 153/1/3 145/1/3 152/1/3
f 154/1/3 147/1/3 146/1/3
f 154/5/3 146/5/3 153/5/3
f 155/3/3 149/3/3 148/3/3
f 155/6/3 150/6/3 149/6/3
f 156/2/3 151/2/3 150/2/3
f 156/6/3 150/6/3 155/6/3
f 157/5/3 153/5/3 152/5/3
f 158/1/3 154/1/3 153/1/3
f 158/5/3 153/5/3 157/5/3
f 159/1/3 147/1/3 154/1/3
f 159/1/3 154/1/3 158/1/3
f 160/3/3 155/3/3 148/3/3
f 161/2/3 156/2/3 155/2/3
f 161/3/3 155/3/3 160/3/3
f 162/5/3 157/5/3 152/5/3
f 163/1/3 158/1/3 157/1/3
f 163/5/3 157/5/3 162/5/3
f 164/5/3 159/5/3 158/5/3
f 164/1/3 158/1/3 163/1/3
f 165/5/3 159/5/3 164/5/3
f 166/2/3 156/2/3 161/2/3
f 166/2/3 161/2/3 160/2/3
f 167/2/3 151/2/3 156/2/3
f 167/2/3 156/2/3 166/2/3
f 168/1/3 163/1/3 162/1/3
f 168/1/3 165/1/3 164/1/3
f 168/1/3 164/1/3 163/1/3
f 169/1/3 165/1/3 168/1/3
f 170/2/3 166/2/3 160/2/3
f 171/6/3 167/6/3 166/6/3
f 171/2/3 166/2/3 170/2/3
f 172/2/3 151/2/3 167/2/3
f 172/6/3 167/6/3 171/6/3
f 173/2/3 151/2/3 172/2/3
f 176/2/3 175/2/3 174/2/3
f 177/2/3 175/2/3 176/2/3
f 180/1/3 179/1/3 178/1/3
f 181/1/3 179/1/3 180/1/3
f 184/1/3 183/1/3 182/1/3
f 185/1/3 183/1/3 184/1/3
f 194/2/3 187/2/3 186/2/3
f 195/2/3 187/2/3 194/2/3
f 196/2/3 189/2/3 188/2/3
f 197/2/3 189/2/3 196/2/3
f 198/6/3 191/6/3 190/6/3
f 199/6/3 191/6/3 198/6/3
f 200/6/3 193/6/3 192/6/3
f 201/6/3 193/6/3 200/6/3
f 208/2/3 203/2/3 202/2/3
f 209/2/3 203/2/3 208/2/3
f 210/6/3 205/6/3 204/6/3
f 211/6/3 205/6/3 210/6/3
f 212/6/3 207/6/3 206/6/3
f 213/6/3 207/6/3 212/6/3
f 216/2/3 215/2/3 214/2/3
f 217/2/3 215/2/3 216/2/3
f 220/1/3 219/1/3 218/1/3
f 221/1/3 219/1/3 220/1/3
f 224/1/3 223/1/3 222/1/3
f 225/1/3 223/1/3 224/1/3
f 228/2/3 227/2/3 226/2/3
f 229/2/3 227/2/3 228/2/3
f 230/2/4 231/2/4 232/2/4
f 232/2/4 231/2/4 233/2/4
f 234/1/4 235/1/4 236/1/4
f 236/1/4 235/1/4 237/1/4
f 238/1/4 239/1/4 240/1/4
f 240/1/4 239/1/4 241/1/4
f 242/2/4 243/2/4 250/2/4
f 250/2/4 243/2/4 251/2/4
f 244/2/4 245/2/4 252/2/4
f 252/2/4 245/2/4 253/2/4
f 246/6/4 247/6/4 254/6/4
f 254/6/4 247/6/4 255/6/4
f 248/6/4 249/6/4 256/6/4
f 256/6/4 249/6/4 257/6/4
f 258/2/4 259/2/4 264/2/4
f 264/2/4 259/2/4 265/2/4
f 260/6/4 261/6/4 266/6/4
f 266/6/4 261/6/4 267/6/4
f 262/6/4 263/6/4 268/6/4
f 268/6/4 263/6/4 269/6/4
f 270/2/4 271/2/4 272/2/4
f 272/2/4 271/2/4 273/2/4
f 274/1/4 275/1/4 276/1/4
f 276/1/4 275/1/4 277/1/4
f 278/1/4 279/1/4 280/1/4
f 280/1/4 279/1/4 281/1/4
f 282/2/4 283/2/4 284/2/4
f 284/2/4 283/2/4 285/2/4
f 286/1/4 287/1/4 290/1/4
f 290/1/4 287/1/4 291/1/4
f 288/2/4 289/2/4 292/2/4
f 292/2/4 289/2/4 293/2/4
f 298/2/5 295/2/5 294/2/5
f 299/2/5 295/2/5 298/2/5
f 300/2/5 297/2/5 296/2/5
f 301/2/5 297/2/5 300/2/5
f 306/6/5 303/6/5 302/6/5
f 307/6/5 303/6/5 306/6/5
f 308/6/5 305/6/5 304/6/5
f 309/6/5 305/6/5 308/6/5
f 314/6/5 311/6/5 310/6/5
f 315/6/5 311/6/5 314/6/5
f 316/6/5 313/6/5 312/6/5
f 317/6/5 313/6/5 316/6/5
f 322/1/5 319/1/5 318/1/5
f 322/5/5 320/5/5 319/5/5
f 323/1/5 321/1/5 320/1/5
f 323/5/5 320/5/5 322/5/5
f 324/1/5 322/1/5 318/1/5
f 324/1/5 323/1/5 322/1/5
f 325/1/5 321/1/5 323/1/5
f 325/1/5 323/1/5 324/1/5
f 338/2/5 327/2/5 326/2/5
f 339/2/5 327/2/5 338/2/5
f 340/1/5 329/1/5 328/1/5
f 341/1/5 329/1/5 340/1/5
f 342/1/5 331/1/5 330/1/5
f 343/1/5 331/1/5 342/1/5
f 344/1/5 333/1/5 332/1/5
f 345/1/5 333/1/5 344/1/5
f 346/1/5 335/1/5 334/1/5
f 347/1/5 335/1/5 346/1/5
f 348/2/5 337/2/5 336/2/5
f 349/2/5 337/2/5 348/2/5
f 353/3/5 351/3/5 350/3/5
f 354/2/5 352/2/5 351/2/5
f 354/3/5 351/3/5 353/3/5
f 355/2/5 354/2/5 353/2/5
f 356/2/5 352/2/5 354/2/5
f 356/2/5 354/2/5 355/2/5
f 361/2/5 358/2/5 357/2/5
f 362/2/5 358/2/5 361/2/5
f 363/2/5 360/2/5 359/2/5
f 364/2/5 360/2/5 363/2/5
f 365/2/6 366/2/6 369/2/6
f 369/2/6 366/2/6 370/2/6
f 367/2/6 368/2/6 371/2/6
f 371/2/6 368/2/6 372/2/6
f 373/6/6 374/6/6 377/6/6
f 377/6/6 374/6/6 378/6/6
f 375/6/6 376/6/6 379/6/6
f 379/6/6 376/6/6 380/6/6
f 381/6/6 382/6/6 385/6/6
f 385/6/6 382/6/6 386/6/6
f 383/6/6 384/6/6 387/6/6
f 387/6/6 384/6/6 388/6/6
f 389/1/6 390/1/6 399/1/6
f 390/5/6 391/5/6 400/5/6
f 399/1/6 390/1/6 400/1/6
f 393/2/6 394/2/6 407/2/6
f 407/2/6 394/2/6 408/2/6
f 395/1/6 396/1/6 409/1/6
f 409/1/6 396/1/6 410/1/6
f 397/1/6 398/1/6 411/1/6
f 411/1/6 398/1/6 412/1/6
f 389/1/6 399/1/6 413/1/6
f 399/5/6 400/5/6 413/5/6
f 391/1/6 392/1/6 414/1/6
f 413/5/6 400/5/6 414/5/6
f 400/5/6 391/5/6 414/5/6
f 401/1/6 402/1/6 415/1/6
f 415/1/6 402/1/6 416/1/6
f 403/1/6 404/1/6 417/1/6
f 417/1/6 404/1/6 418/1/6
f 405/2/6 406/2/6 419/2/6
f 419/2/6 406/2/6 420/2/6
f 389/1/6 413/1/6 421/1/6
f 413/1/6 414/1/6 421/1/6
f 414/1/6 392/1/6 422/1/6
f 421/1/6 414/1/6 422/1/6
f 423/2/6 424/2/6 427/2/6
f 427/2/6 424/2/6 428/2/6
f 425/2/6 426/2/6 429/2/6
f 429/2/6 426/2/6 430/2/6
f 431/2/6 432/2/6 433/2/6
f 433/2/6 432/2/6 434/2/6
