# MagicaVoxel @ Ephtracy

# material
mtllib artist_2.mtl
usemtl palette

# normals
vn -1 0 0
vn 1 0 0
vn 0 0 1
vn 0 0 -1
vn 0 -1 0
vn 0 1 0

# texcoords
vt 0.0332031 0.5
vt 0.224609 0.5
vt 0.865234 0.5
vt 0.869141 0.5
vt 0.994141 0.5

# verts
v -8 0 10
v -8 0 -9
v -8 1 10
v -8 1 -9
v -7 0 -9
v -7 0 -11
v -7 1 -9
v -7 1 -11
v -6 0 -11
v -6 0 -12
v -6 1 -11
v -6 1 -12
v -5 0 -12
v -5 0 -13
v -5 1 -12
v -5 1 -13
v -4 0 -13
v -4 0 -14
v -4 1 -13
v -4 1 -14
v 2 0 10
v 2 0 3
v 2 1 10
v 2 1 3
v -2 0 10
v -2 0 3
v -2 1 10
v -2 1 3
v 4 0 -13
v 4 0 -14
v 4 1 -13
v 4 1 -14
v 5 0 -12
v 5 0 -13
v 5 1 -12
v 5 1 -13
v 6 0 -11
v 6 0 -12
v 6 1 -11
v 6 1 -12
v 7 0 -9
v 7 0 -11
v 7 1 -9
v 7 1 -11
v 8 0 10
v 8 0 -6
v 8 0 -7
v 8 0 -9
v 8 1 10
v 8 1 -6
v 8 1 -7
v 8 1 -9
v -8 0 10
v -8 1 10
v -2 0 10
v -2 1 10
v 2 0 10
v 2 1 10
v 4 0 10
v 4 1 10
v 8 0 10
v 8 1 10
v -2 0 3
v -2 1 3
v 2 0 3
v 2 1 3
v -8 0 -9
v -8 1 -9
v -7 0 -9
v -7 1 -9
v 7 0 -9
v 7 1 -9
v 8 0 -9
v 8 1 -9
v -7 0 -11
v -7 1 -11
v -6 0 -11
v -6 1 -11
v 6 0 -11
v 6 1 -11
v 7 0 -11
v 7 1 -11
v -6 0 -12
v -6 1 -12
v -5 0 -12
v -5 1 -12
v 5 0 -12
v 5 1 -12
v 6 0 -12
v 6 1 -12
v -5 0 -13
v -5 1 -13
v -4 0 -13
v -4 1 -13
v 4 0 -13
v 4 1 -13
v 5 0 -13
v 5 1 -13
v -4 0 -14
v -4 1 -14
v -2 0 -14
v -2 1 -14
v 4 0 -14
v 4 1 -14
v -8 0 10
v -2 0 10
v 2 0 10
v 4 0 10
v 8 0 10
v -3 0 3
v -2 0 3
v 2 0 3
v 3 0 3
v -4 0 2
v -3 0 2
v 3 0 2
v 4 0 2
v 5 0 2
v -5 0 1
v -4 0 1
v 4 0 1
v 5 0 1
v 6 0 1
v -6 0 -0
v -5 0 -0
v -3 0 -0
v 3 0 -0
v 5 0 -0
v 6 0 -0
v 7 0 -0
v -1 0 -1
v 1 0 -1
v -7 0 -2
v -6 0 -2
v -1 0 -2
v 1 0 -2
v 6 0 -2
v 7 0 -2
v -6 0 -3
v -3 0 -3
v -2 0 -3
v 2 0 -3
v 3 0 -3
v 6 0 -3
v -7 0 -6
v -6 0 -6
v -3 0 -6
v -2 0 -6
v 2 0 -6
v 3 0 -6
v 6 0 -6
v 7 0 -6
v 8 0 -6
v -6 0 -7
v -5 0 -7
v 5 0 -7
v 6 0 -7
v 7 0 -7
v 8 0 -7
v -5 0 -8
v -4 0 -8
v 4 0 -8
v 5 0 -8
v 6 0 -8
v 7 0 -8
v -8 0 -9
v -7 0 -9
v -4 0 -9
v -3 0 -9
v 3 0 -9
v 4 0 -9
v 6 0 -9
v 7 0 -9
v 8 0 -9
v -3 0 -10
v -2 0 -10
v 2 0 -10
v 3 0 -10
v 4 0 -10
v -7 0 -11
v -6 0 -11
v -2 0 -11
v -1 0 -11
v 1 0 -11
v 2 0 -11
v 6 0 -11
v 7 0 -11
v -6 0 -12
v -5 0 -12
v -2 0 -12
v -1 0 -12
v 1 0 -12
v 2 0 -12
v 3 0 -12
v 5 0 -12
v 6 0 -12
v -5 0 -13
v -4 0 -13
v -2 0 -13
v -1 0 -13
v 2 0 -13
v 4 0 -13
v 5 0 -13
v -4 0 -14
v -2 0 -14
v 4 0 -14
v -8 1 10
v -2 1 10
v 2 1 10
v 4 1 10
v 8 1 10
v -3 1 3
v -2 1 3
v 2 1 3
v 3 1 3
v -4 1 2
v -3 1 2
v 3 1 2
v 4 1 2
v 5 1 2
v -5 1 1
v -4 1 1
v 4 1 1
v 5 1 1
v 6 1 1
v -6 1 -0
v -5 1 -0
v -3 1 -0
v 3 1 -0
v 5 1 -0
v 6 1 -0
v 7 1 -0
v -1 1 -1
v 1 1 -1
v -7 1 -2
v -6 1 -2
v -1 1 -2
v 1 1 -2
v 6 1 -2
v 7 1 -2
v -6 1 -3
v -3 1 -3
v -2 1 -3
v 2 1 -3
v 3 1 -3
v 6 1 -3
v -7 1 -6
v -6 1 -6
v -3 1 -6
v -2 1 -6
v 2 1 -6
v 3 1 -6
v 6 1 -6
v 7 1 -6
v 8 1 -6
v -6 1 -7
v -5 1 -7
v 5 1 -7
v 6 1 -7
v 7 1 -7
v 8 1 -7
v -5 1 -8
v -4 1 -8
v 4 1 -8
v 5 1 -8
v 6 1 -8
v 7 1 -8
v -8 1 -9
v -7 1 -9
v -4 1 -9
v -3 1 -9
v 3 1 -9
v 4 1 -9
v 6 1 -9
v 7 1 -9
v 8 1 -9
v -3 1 -10
v -2 1 -10
v 2 1 -10
v 3 1 -10
v 4 1 -10
v -7 1 -11
v -6 1 -11
v -2 1 -11
v -1 1 -11
v 1 1 -11
v 2 1 -11
v 6 1 -11
v 7 1 -11
v -6 1 -12
v -5 1 -12
v -2 1 -12
v -1 1 -12
v 1 1 -12
v 2 1 -12
v 3 1 -12
v 5 1 -12
v 6 1 -12
v -5 1 -13
v -4 1 -13
v -2 1 -13
v -1 1 -13
v 2 1 -13
v 4 1 -13
v 5 1 -13
v -4 1 -14
v -2 1 -14
v 4 1 -14

# faces
f 3/3/1 2/3/1 1/3/1
f 4/3/1 2/3/1 3/3/1
f 7/3/1 6/3/1 5/3/1
f 8/3/1 6/3/1 7/3/1
f 11/3/1 10/3/1 9/3/1
f 12/3/1 10/3/1 11/3/1
f 15/3/1 14/3/1 13/3/1
f 16/3/1 14/3/1 15/3/1
f 19/3/1 18/3/1 17/3/1
f 20/3/1 18/3/1 19/3/1
f 23/4/1 22/4/1 21/4/1
f 24/4/1 22/4/1 23/4/1
f 25/3/2 26/3/2 27/3/2
f 27/3/2 26/3/2 28/3/2
f 29/4/2 30/4/2 31/4/2
f 31/4/2 30/4/2 32/4/2
f 33/3/2 34/3/2 35/3/2
f 35/3/2 34/3/2 36/3/2
f 37/3/2 38/3/2 39/3/2
f 39/3/2 38/3/2 40/3/2
f 41/3/2 42/3/2 43/3/2
f 43/3/2 42/3/2 44/3/2
f 45/3/2 46/3/2 49/3/2
f 46/4/2 47/4/2 50/4/2
f 49/3/2 46/3/2 50/3/2
f 47/3/2 48/3/2 51/3/2
f 50/4/2 47/4/2 51/4/2
f 51/3/2 48/3/2 52/3/2
f 55/3/3 54/3/3 53/3/3
f 56/3/3 54/3/3 55/3/3
f 59/4/3 58/4/3 57/4/3
f 60/4/3 58/4/3 59/4/3
f 61/3/3 60/3/3 59/3/3
f 62/3/3 60/3/3 61/3/3
f 65/1/3 64/1/3 63/1/3
f 66/1/3 64/1/3 65/1/3
f 67/3/4 68/3/4 69/3/4
f 69/3/4 68/3/4 70/3/4
f 71/3/4 72/3/4 73/3/4
f 73/3/4 72/3/4 74/3/4
f 75/3/4 76/3/4 77/3/4
f 77/3/4 76/3/4 78/3/4
f 79/3/4 80/3/4 81/3/4
f 81/3/4 80/3/4 82/3/4
f 83/3/4 84/3/4 85/3/4
f 85/3/4 84/3/4 86/3/4
f 87/3/4 88/3/4 89/3/4
f 89/3/4 88/3/4 90/3/4
f 91/3/4 92/3/4 93/3/4
f 93/3/4 92/3/4 94/3/4
f 95/3/4 96/3/4 97/3/4
f 97/3/4 96/3/4 98/3/4
f 99/3/4 100/3/4 101/3/4
f 101/3/4 100/3/4 102/3/4
f 101/4/4 102/4/4 103/4/4
f 103/4/4 102/4/4 104/4/4
f 110/3/5 106/3/5 105/3/5
f 111/3/5 106/3/5 110/3/5
f 112/4/5 108/4/5 107/4/5
f 113/4/5 108/4/5 112/4/5
f 114/3/5 110/3/5 105/3/5
f 115/1/5 111/1/5 110/1/5
f 115/3/5 110/3/5 114/3/5
f 115/1/5 112/1/5 111/1/5
f 115/1/5 113/1/5 112/1/5
f 116/4/5 108/4/5 113/4/5
f 116/1/5 113/1/5 115/1/5
f 117/3/5 109/3/5 108/3/5
f 117/4/5 108/4/5 116/4/5
f 118/3/5 109/3/5 117/3/5
f 119/3/5 114/3/5 105/3/5
f 120/1/5 116/1/5 115/1/5
f 120/3/5 114/3/5 119/3/5
f 120/1/5 115/1/5 114/1/5
f 120/1/5 117/1/5 116/1/5
f 121/4/5 118/4/5 117/4/5
f 121/1/5 117/1/5 120/1/5
f 122/3/5 109/3/5 118/3/5
f 122/4/5 118/4/5 121/4/5
f 123/3/5 109/3/5 122/3/5
f 124/3/5 119/3/5 105/3/5
f 125/1/5 121/1/5 120/1/5
f 125/3/5 119/3/5 124/3/5
f 125/1/5 120/1/5 119/1/5
f 125/1/5 122/1/5 121/1/5
f 126/1/5 122/1/5 125/1/5
f 127/1/5 122/1/5 126/1/5
f 128/4/5 123/4/5 122/4/5
f 128/1/5 122/1/5 127/1/5
f 129/3/5 109/3/5 123/3/5
f 129/4/5 123/4/5 128/4/5
f 130/3/5 109/3/5 129/3/5
f 131/1/5 127/1/5 126/1/5
f 132/1/5 127/1/5 131/1/5
f 133/3/5 124/3/5 105/3/5
f 134/2/5 125/2/5 124/2/5
f 134/3/5 124/3/5 133/3/5
f 134/2/5 126/2/5 125/2/5
f 135/5/5 132/5/5 131/5/5
f 135/1/5 131/1/5 126/1/5
f 136/1/5 127/1/5 132/1/5
f 136/5/5 132/5/5 135/5/5
f 137/2/5 128/2/5 127/2/5
f 137/2/5 129/2/5 128/2/5
f 137/4/5 130/4/5 129/4/5
f 138/3/5 109/3/5 130/3/5
f 138/4/5 130/4/5 137/4/5
f 139/2/5 126/2/5 134/2/5
f 139/1/5 134/1/5 133/1/5
f 140/1/5 135/1/5 126/1/5
f 140/2/5 126/2/5 139/2/5
f 140/1/5 136/1/5 135/1/5
f 141/1/5 136/1/5 140/1/5
f 142/1/5 127/1/5 136/1/5
f 142/1/5 136/1/5 141/1/5
f 143/2/5 137/2/5 127/2/5
f 143/1/5 127/1/5 142/1/5
f 144/1/5 138/1/5 137/1/5
f 144/2/5 137/2/5 143/2/5
f 145/1/5 139/1/5 133/1/5
f 145/3/5 133/3/5 105/3/5
f 145/1/5 140/1/5 139/1/5
f 146/1/5 140/1/5 145/1/5
f 147/5/5 141/5/5 140/5/5
f 147/1/5 140/1/5 146/1/5
f 148/1/5 142/1/5 141/1/5
f 148/5/5 141/5/5 147/5/5
f 149/5/5 143/5/5 142/5/5
f 149/1/5 142/1/5 148/1/5
f 150/1/5 144/1/5 143/1/5
f 150/5/5 143/5/5 149/5/5
f 151/1/5 138/1/5 144/1/5
f 151/1/5 144/1/5 150/1/5
f 152/3/5 109/3/5 138/3/5
f 152/1/5 138/1/5 151/1/5
f 153/3/5 109/3/5 152/3/5
f 154/3/5 146/3/5 145/3/5
f 154/1/5 150/1/5 149/1/5
f 154/1/5 147/1/5 146/1/5
f 154/1/5 149/1/5 148/1/5
f 154/1/5 151/1/5 150/1/5
f 154/1/5 148/1/5 147/1/5
f 155/1/5 151/1/5 154/1/5
f 156/1/5 151/1/5 155/1/5
f 157/4/5 153/4/5 152/4/5
f 157/1/5 151/1/5 156/1/5
f 157/4/5 152/4/5 151/4/5
f 158/4/5 153/4/5 157/4/5
f 159/4/5 153/4/5 158/4/5
f 160/1/5 156/1/5 155/1/5
f 160/3/5 155/3/5 154/3/5
f 161/1/5 156/1/5 160/1/5
f 162/1/5 156/1/5 161/1/5
f 163/4/5 157/4/5 156/4/5
f 163/1/5 156/1/5 162/1/5
f 163/4/5 158/4/5 157/4/5
f 164/4/5 158/4/5 163/4/5
f 165/3/5 159/3/5 158/3/5
f 165/4/5 158/4/5 164/4/5
f 166/3/5 145/3/5 105/3/5
f 166/3/5 154/3/5 145/3/5
f 166/3/5 161/3/5 160/3/5
f 166/3/5 160/3/5 154/3/5
f 167/3/5 161/3/5 166/3/5
f 168/1/5 162/1/5 161/1/5
f 168/3/5 161/3/5 167/3/5
f 169/1/5 162/1/5 168/1/5
f 170/1/5 162/1/5 169/1/5
f 171/4/5 164/4/5 163/4/5
f 171/1/5 162/1/5 170/1/5
f 171/4/5 163/4/5 162/4/5
f 172/3/5 165/3/5 164/3/5
f 172/4/5 164/4/5 171/4/5
f 173/3/5 159/3/5 165/3/5
f 173/3/5 165/3/5 172/3/5
f 174/3/5 159/3/5 173/3/5
f 175/1/5 170/1/5 169/1/5
f 175/3/5 169/3/5 168/3/5
f 175/3/5 168/3/5 167/3/5
f 176/1/5 170/1/5 175/1/5
f 177/1/5 170/1/5 176/1/5
f 178/4/5 171/4/5 170/4/5
f 178/1/5 170/1/5 177/1/5
f 179/3/5 172/3/5 171/3/5
f 179/4/5 171/4/5 178/4/5
f 179/3/5 173/3/5 172/3/5
f 180/3/5 176/3/5 175/3/5
f 180/3/5 175/3/5 167/3/5
f 181/3/5 176/3/5 180/3/5
f 182/1/5 177/1/5 176/1/5
f 182/3/5 176/3/5 181/3/5
f 183/1/5 177/1/5 182/1/5
f 184/1/5 177/1/5 183/1/5
f 185/4/5 178/4/5 177/4/5
f 185/1/5 177/1/5 184/1/5
f 186/3/5 173/3/5 179/3/5
f 186/3/5 179/3/5 178/3/5
f 187/3/5 173/3/5 186/3/5
f 188/3/5 182/3/5 181/3/5
f 189/3/5 182/3/5 188/3/5
f 190/4/5 183/4/5 182/4/5
f 190/3/5 182/3/5 189/3/5
f 191/1/5 184/1/5 183/1/5
f 191/4/5 183/4/5 190/4/5
f 192/4/5 185/4/5 184/4/5
f 192/1/5 184/1/5 191/1/5
f 193/4/5 178/4/5 185/4/5
f 193/4/5 185/4/5 192/4/5
f 194/3/5 186/3/5 178/3/5
f 194/4/5 178/4/5 193/4/5
f 195/3/5 186/3/5 194/3/5
f 196/3/5 186/3/5 195/3/5
f 197/3/5 190/3/5 189/3/5
f 197/3/5 191/3/5 190/3/5
f 198/3/5 191/3/5 197/3/5
f 199/3/5 191/3/5 198/3/5
f 200/4/5 192/4/5 191/4/5
f 200/3/5 191/3/5 199/3/5
f 200/4/5 193/4/5 192/4/5
f 201/3/5 195/3/5 194/3/5
f 201/4/5 193/4/5 200/4/5
f 201/3/5 194/3/5 193/3/5
f 202/3/5 195/3/5 201/3/5
f 203/3/5 195/3/5 202/3/5
f 204/3/5 199/3/5 198/3/5
f 205/4/5 200/4/5 199/4/5
f 205/3/5 199/3/5 204/3/5
f 205/4/5 202/4/5 201/4/5
f 205/4/5 201/4/5 200/4/5
f 206/4/5 202/4/5 205/4/5
f 207/3/6 208/3/6 212/3/6
f 212/3/6 208/3/6 213/3/6
f 209/4/6 210/4/6 214/4/6
f 214/4/6 210/4/6 215/4/6
f 207/3/6 212/3/6 216/3/6
f 212/1/6 213/1/6 217/1/6
f 216/3/6 212/3/6 217/3/6
f 213/1/6 214/1/6 217/1/6
f 214/1/6 215/1/6 217/1/6
f 215/4/6 210/4/6 218/4/6
f 217/1/6 215/1/6 218/1/6
f 210/3/6 211/3/6 219/3/6
f 218/4/6 210/4/6 219/4/6
f 219/3/6 211/3/6 220/3/6
f 207/3/6 216/3/6 221/3/6
f 217/1/6 218/1/6 222/1/6
f 221/3/6 216/3/6 222/3/6
f 216/1/6 217/1/6 222/1/6
f 218/1/6 219/1/6 222/1/6
f 219/4/6 220/4/6 223/4/6
f 222/1/6 219/1/6 223/1/6
f 220/3/6 211/3/6 224/3/6
f 223/4/6 220/4/6 224/4/6
f 224/3/6 211/3/6 225/3/6
f 207/3/6 221/3/6 226/3/6
f 222/1/6 223/1/6 227/1/6
f 226/3/6 221/3/6 227/3/6
f 221/1/6 222/1/6 227/1/6
f 223/1/6 224/1/6 227/1/6
f 227/1/6 224/1/6 228/1/6
f 228/1/6 224/1/6 229/1/6
f 224/4/6 225/4/6 230/4/6
f 229/1/6 224/1/6 230/1/6
f 225/3/6 211/3/6 231/3/6
f 230/4/6 225/4/6 231/4/6
f 231/3/6 211/3/6 232/3/6
f 228/1/6 229/1/6 233/1/6
f 233/1/6 229/1/6 234/1/6
f 207/3/6 226/3/6 235/3/6
f 226/2/6 227/2/6 236/2/6
f 235/3/6 226/3/6 236/3/6
f 227/2/6 228/2/6 236/2/6
f 233/5/6 234/5/6 237/5/6
f 228/1/6 233/1/6 237/1/6
f 234/1/6 229/1/6 238/1/6
f 237/5/6 234/5/6 238/5/6
f 229/2/6 230/2/6 239/2/6
f 230/2/6 231/2/6 239/2/6
f 231/4/6 232/4/6 239/4/6
f 232/3/6 211/3/6 240/3/6
f 239/4/6 232/4/6 240/4/6
f 236/2/6 228/2/6 241/2/6
f 235/1/6 236/1/6 241/1/6
f 228/1/6 237/1/6 242/1/6
f 241/2/6 228/2/6 242/2/6
f 237/1/6 238/1/6 242/1/6
f 242/1/6 238/1/6 243/1/6
f 238/1/6 229/1/6 244/1/6
f 243/1/6 238/1/6 244/1/6
f 229/2/6 239/2/6 245/2/6
f 244/1/6 229/1/6 245/1/6
f 239/1/6 240/1/6 246/1/6
f 245/2/6 239/2/6 246/2/6
f 235/1/6 241/1/6 247/1/6
f 207/3/6 235/3/6 247/3/6
f 241/1/6 242/1/6 247/1/6
f 247/1/6 242/1/6 248/1/6
f 242/5/6 243/5/6 249/5/6
f 248/1/6 242/1/6 249/1/6
f 243/1/6 244/1/6 250/1/6
f 249/5/6 243/5/6 250/5/6
f 244/5/6 245/5/6 251/5/6
f 250/1/6 244/1/6 251/1/6
f 245/1/6 246/1/6 252/1/6
f 251/5/6 245/5/6 252/5/6
f 246/1/6 240/1/6 253/1/6
f 252/1/6 246/1/6 253/1/6
f 240/3/6 211/3/6 254/3/6
f 253/1/6 240/1/6 254/1/6
f 254/3/6 211/3/6 255/3/6
f 247/3/6 248/3/6 256/3/6
f 251/1/6 252/1/6 256/1/6
f 248/1/6 249/1/6 256/1/6
f 250/1/6 251/1/6 256/1/6
f 252/1/6 253/1/6 256/1/6
f 249/1/6 250/1/6 256/1/6
f 256/1/6 253/1/6 257/1/6
f 257/1/6 253/1/6 258/1/6
f 254/4/6 255/4/6 259/4/6
f 258/1/6 253/1/6 259/1/6
f 253/4/6 254/4/6 259/4/6
f 259/4/6 255/4/6 260/4/6
f 260/4/6 255/4/6 261/4/6
f 257/1/6 258/1/6 262/1/6
f 256/3/6 257/3/6 262/3/6
f 262/1/6 258/1/6 263/1/6
f 263/1/6 258/1/6 264/1/6
f 258/4/6 259/4/6 265/4/6
f 264/1/6 258/1/6 265/1/6
f 259/4/6 260/4/6 265/4/6
f 265/4/6 260/4/6 266/4/6
f 260/3/6 261/3/6 267/3/6
f 266/4/6 260/4/6 267/4/6
f 207/3/6 247/3/6 268/3/6
f 247/3/6 256/3/6 268/3/6
f 262/3/6 263/3/6 268/3/6
f 256/3/6 262/3/6 268/3/6
f 268/3/6 263/3/6 269/3/6
f 263/1/6 264/1/6 270/1/6
f 269/3/6 263/3/6 270/3/6
f 270/1/6 264/1/6 271/1/6
f 271/1/6 264/1/6 272/1/6
f 265/4/6 266/4/6 273/4/6
f 272/1/6 264/1/6 273/1/6
f 264/4/6 265/4/6 273/4/6
f 266/3/6 267/3/6 274/3/6
f 273/4/6 266/4/6 274/4/6
f 267/3/6 261/3/6 275/3/6
f 274/3/6 267/3/6 275/3/6
f 275/3/6 261/3/6 276/3/6
f 271/1/6 272/1/6 277/1/6
f 270/3/6 271/3/6 277/3/6
f 269/3/6 270/3/6 277/3/6
f 277/1/6 272/1/6 278/1/6
f 278/1/6 272/1/6 279/1/6
f 272/4/6 273/4/6 280/4/6
f 279/1/6 272/1/6 280/1/6
f 273/3/6 274/3/6 281/3/6
f 280/4/6 273/4/6 281/4/6
f 274/3/6 275/3/6 281/3/6
f 277/3/6 278/3/6 282/3/6
f 269/3/6 277/3/6 282/3/6
f 282/3/6 278/3/6 283/3/6
f 278/1/6 279/1/6 284/1/6
f 283/3/6 278/3/6 284/3/6
f 284/1/6 279/1/6 285/1/6
f 285/1/6 279/1/6 286/1/6
f 279/4/6 280/4/6 287/4/6
f 286/1/6 279/1/6 287/1/6
f 281/3/6 275/3/6 288/3/6
f 280/3/6 281/3/6 288/3/6
f 288/3/6 275/3/6 289/3/6
f 283/3/6 284/3/6 290/3/6
f 290/3/6 284/3/6 291/3/6
f 284/4/6 285/4/6 292/4/6
f 291/3/6 284/3/6 292/3/6
f 285/1/6 286/1/6 293/1/6
f 292/4/6 285/4/6 293/4/6
f 286/4/6 287/4/6 294/4/6
f 293/1/6 286/1/6 294/1/6
f 287/4/6 280/4/6 295/4/6
f 294/4/6 287/4/6 295/4/6
f 280/3/6 288/3/6 296/3/6
f 295/4/6 280/4/6 296/4/6
f 296/3/6 288/3/6 297/3/6
f 297/3/6 288/3/6 298/3/6
f 291/3/6 292/3/6 299/3/6
f 292/3/6 293/3/6 299/3/6
f 299/3/6 293/3/6 300/3/6
f 300/3/6 293/3/6 301/3/6
f 293/4/6 294/4/6 302/4/6
f 301/3/6 293/3/6 302/3/6
f 294/4/6 295/4/6 302/4/6
f 296/3/6 297/3/6 303/3/6
f 302/4/6 295/4/6 303/4/6
f 295/3/6 296/3/6 303/3/6
f 303/3/6 297/3/6 304/3/6
f 304/3/6 297/3/6 305/3/6
f 300/3/6 301/3/6 306/3/6
f 301/4/6 302/4/6 307/4/6
f 306/3/6 301/3/6 307/3/6
f 303/4/6 304/4/6 307/4/6
f 302/4/6 303/4/6 307/4/6
f 307/4/6 304/4/6 308/4/6
