# MagicaVoxel @ Ephtracy

# material
mtllib tree_1.mtl
usemtl palette

# normals
vn -1 0 0
vn 1 0 0
vn 0 0 1
vn 0 0 -1
vn 0 -1 0
vn 0 1 0

# texcoords
vt 0.224609 0.5
vt 0.583984 0.5

# verts
v -6.5 11 -0
v -6.5 11 -1
v -6.5 13 -0
v -6.5 13 -1
v -5.5 10 -0
v -5.5 10 -1
v -5.5 11 -0
v -5.5 11 -1
v -5.5 21 -1
v -5.5 21 -3
v -5.5 23 -1
v -5.5 23 -3
v -4.5 20 -0
v -4.5 20 -4
v -4.5 21 -1
v -4.5 21 -3
v -4.5 22 1
v -4.5 22 -0
v -4.5 23 1
v -4.5 23 -0
v -4.5 23 -1
v -4.5 23 -3
v -4.5 23 -4
v -4.5 24 -0
v -4.5 24 -3
v -3.5 17 2
v -3.5 17 -3
v -3.5 20 4
v -3.5 20 2
v -3.5 20 -0
v -3.5 20 -3
v -3.5 20 -4
v -3.5 20 -5
v -3.5 22 4
v -3.5 22 2
v -3.5 22 1
v -3.5 22 -0
v -3.5 23 2
v -3.5 23 1
v -3.5 23 -0
v -3.5 23 -3
v -3.5 23 -4
v -3.5 23 -5
v -3.5 24 1
v -3.5 24 -0
v -3.5 24 -3
v -3.5 24 -4
v -3.5 25 -0
v -3.5 25 -3
v -2.5 0 1
v -2.5 0 -2
v -2.5 10 -0
v -2.5 10 -1
v -2.5 11 -0
v -2.5 11 -1
v -2.5 17 1
v -2.5 17 -2
v -2.5 23 2
v -2.5 23 1
v -2.5 23 -4
v -2.5 23 -5
v -2.5 24 2
v -2.5 24 1
v -2.5 24 -0
v -2.5 24 -3
v -2.5 24 -4
v -2.5 24 -5
v -2.5 25 1
v -2.5 25 -0
v -2.5 25 -3
v -2.5 25 -4
v -2.5 26 -0
v -2.5 26 -3
v -1.5 15 -2
v -1.5 15 -4
v -1.5 16 -2
v -1.5 16 -3
v -1.5 16 -4
v -1.5 16 -5
v -1.5 17 -3
v -1.5 17 -4
v -1.5 18 5
v -1.5 18 3
v -1.5 18 -4
v -1.5 18 -5
v -1.5 18 -6
v -1.5 19 5
v -1.5 19 3
v -1.5 20 -4
v -1.5 20 -5
v -1.5 20 -6
v -1.5 22 3
v -1.5 22 2
v -1.5 24 3
v -1.5 24 2
v -1.5 24 1
v -1.5 25 2
v -1.5 25 1
v -0.5 14 3
v -0.5 14 1
v -0.5 15 2
v -0.5 15 1
v -0.5 16 5
v -0.5 16 3
v -0.5 17 4
v -0.5 17 2
v -0.5 18 6
v -0.5 18 5
v -0.5 18 4
v -0.5 19 6
v -0.5 19 5
v -0.5 19 3
v -0.5 20 5
v -0.5 20 3
v 1.5 12 -0
v 1.5 12 -1
v 1.5 15 -0
v 1.5 15 -1
v 3.5 16 -0
v 3.5 16 -1
v 3.5 17 -0
v 3.5 17 -1
v 4.5 15 -0
v 4.5 15 -1
v 4.5 16 1
v 4.5 16 -0
v 4.5 16 -1
v 4.5 16 -2
v 4.5 17 -0
v 4.5 17 -1
v 4.5 18 1
v 4.5 18 -0
v 4.5 18 -1
v 4.5 18 -2
v 4.5 19 -0
v 4.5 19 -1
v -5.5 12 -0
v -5.5 12 -1
v -5.5 13 -0
v -5.5 13 -1
v -4.5 11 -0
v -4.5 11 -1
v -4.5 12 -0
v -4.5 12 -1
v -1.5 20 4
v -1.5 20 2
v -1.5 22 4
v -1.5 22 3
v -1.5 22 2
v -0.5 15 -2
v -0.5 15 -4
v -0.5 16 -2
v -0.5 16 -3
v -0.5 16 -4
v -0.5 16 -5
v -0.5 17 -3
v -0.5 17 -4
v -0.5 18 -4
v -0.5 18 -5
v -0.5 19 -4
v -0.5 19 -5
v -0.5 20 -4
v -0.5 20 -5
v 0.5 0 1
v 0.5 0 -2
v 0.5 11 -0
v 0.5 11 -1
v 0.5 12 -0
v 0.5 12 -1
v 0.5 14 3
v 0.5 14 1
v 0.5 15 2
v 0.5 15 1
v 0.5 16 5
v 0.5 16 3
v 0.5 17 4
v 0.5 17 2
v 0.5 17 1
v 0.5 17 -2
v 0.5 18 5
v 0.5 18 4
v 0.5 18 -4
v 0.5 18 -6
v 0.5 19 -4
v 0.5 19 -5
v 0.5 20 -5
v 0.5 20 -6
v 0.5 22 3
v 0.5 22 2
v 0.5 23 2
v 0.5 23 1
v 0.5 23 -4
v 0.5 23 -5
v 0.5 24 3
v 0.5 24 2
v 0.5 24 1
v 0.5 24 -0
v 0.5 24 -3
v 0.5 24 -4
v 0.5 24 -5
v 0.5 25 2
v 0.5 25 -0
v 0.5 25 -3
v 0.5 25 -4
v 0.5 26 -0
v 0.5 26 -3
v 1.5 17 2
v 1.5 17 -3
v 1.5 18 6
v 1.5 18 3
v 1.5 19 6
v 1.5 19 5
v 1.5 19 1
v 1.5 19 -3
v 1.5 20 5
v 1.5 20 3
v 1.5 20 -4
v 1.5 20 -5
v 1.5 23 2
v 1.5 23 1
v 1.5 23 -0
v 1.5 23 -3
v 1.5 23 -4
v 1.5 23 -5
v 1.5 24 1
v 1.5 24 -0
v 1.5 24 -3
v 1.5 24 -4
v 1.5 25 -0
v 1.5 25 -3
v 2.5 11 -0
v 2.5 11 -1
v 2.5 12 -0
v 2.5 12 -1
v 2.5 13 -0
v 2.5 13 -1
v 2.5 14 -0
v 2.5 14 -1
v 2.5 19 1
v 2.5 19 -3
v 2.5 20 -3
v 2.5 20 -4
v 2.5 21 -0
v 2.5 21 -3
v 2.5 23 1
v 2.5 23 -0
v 2.5 23 -3
v 2.5 23 -4
v 2.5 24 -0
v 2.5 24 -3
v 3.5 12 -0
v 3.5 12 -1
v 3.5 13 -0
v 3.5 13 -1
v 3.5 21 -0
v 3.5 21 -3
v 3.5 23 -0
v 3.5 23 -3
v 5.5 14 -0
v 5.5 14 -1
v 5.5 16 1
v 5.5 16 -0
v 5.5 16 -1
v 5.5 18 1
v 5.5 18 -0
v 5.5 18 -1
v 5.5 19 -0
v 5.5 19 -1
v 6.5 16 -0
v 6.5 16 -2
v 6.5 18 -0
v 6.5 18 -2
v -0.5 18 6
v -0.5 19 6
v 1.5 18 6
v 1.5 19 6
v -1.5 18 5
v -1.5 19 5
v -0.5 16 5
v -0.5 18 5
v -0.5 19 5
v -0.5 20 5
v 0.5 16 5
v 0.5 18 5
v 1.5 19 5
v 1.5 20 5
v -3.5 20 4
v -3.5 22 4
v -1.5 20 4
v -1.5 22 4
v -1.5 22 3
v -1.5 24 3
v -0.5 14 3
v -0.5 16 3
v 0.5 14 3
v 0.5 16 3
v 0.5 22 3
v 0.5 24 3
v -3.5 17 2
v -3.5 20 2
v -3.5 22 2
v -3.5 23 2
v -2.5 23 2
v -2.5 24 2
v -1.5 20 2
v -1.5 22 2
v -1.5 24 2
v -1.5 25 2
v -0.5 17 2
v 0.5 17 2
v 0.5 22 2
v 0.5 23 2
v 0.5 24 2
v 0.5 25 2
v 1.5 17 2
v 1.5 23 2
v -4.5 22 1
v -4.5 23 1
v -3.5 22 1
v -3.5 23 1
v -3.5 24 1
v -2.5 0 1
v -2.5 17 1
v -2.5 23 1
v -2.5 24 1
v -2.5 25 1
v -1.5 24 1
v -1.5 25 1
v -0.5 14 1
v -0.5 15 1
v 0.5 0 1
v 0.5 14 1
v 0.5 15 1
v 0.5 17 1
v 0.5 23 1
v 0.5 24 1
v 1.5 19 1
v 1.5 23 1
v 1.5 24 1
v 2.5 19 1
v 2.5 23 1
v 4.5 16 1
v 4.5 18 1
v 5.5 16 1
v 5.5 18 1
v -6.5 11 -0
v -6.5 13 -0
v -5.5 10 -0
v -5.5 11 -0
v -5.5 12 -0
v -5.5 13 -0
v -4.5 11 -0
v -4.5 12 -0
v -4.5 20 -0
v -4.5 22 -0
v -4.5 23 -0
v -4.5 24 -0
v -3.5 20 -0
v -3.5 22 -0
v -3.5 23 -0
v -3.5 24 -0
v -3.5 25 -0
v -2.5 10 -0
v -2.5 11 -0
v -2.5 24 -0
v -2.5 25 -0
v -2.5 26 -0
v 0.5 11 -0
v 0.5 12 -0
v 0.5 24 -0
v 0.5 25 -0
v 0.5 26 -0
v 1.5 12 -0
v 1.5 15 -0
v 1.5 23 -0
v 1.5 24 -0
v 1.5 25 -0
v 2.5 11 -0
v 2.5 12 -0
v 2.5 13 -0
v 2.5 14 -0
v 2.5 21 -0
v 2.5 23 -0
v 2.5 24 -0
v 3.5 12 -0
v 3.5 13 -0
v 3.5 16 -0
v 3.5 17 -0
v 3.5 21 -0
v 3.5 23 -0
v 4.5 15 -0
v 4.5 16 -0
v 4.5 17 -0
v 4.5 18 -0
v 4.5 19 -0
v 5.5 14 -0
v 5.5 16 -0
v 5.5 18 -0
v 5.5 19 -0
v 6.5 16 -0
v 6.5 18 -0
v -5.5 21 -1
v -5.5 23 -1
v -4.5 21 -1
v -4.5 23 -1
v -1.5 16 -3
v -1.5 17 -3
v -0.5 16 -3
v -0.5 17 -3
v -1.5 17 -4
v -1.5 18 -4
v -1.5 20 -4
v -0.5 17 -4
v -0.5 18 -4
v -0.5 19 -4
v -0.5 20 -4
v 0.5 18 -4
v 0.5 19 -4
v -0.5 19 -5
v -0.5 20 -5
v 0.5 19 -5
v 0.5 20 -5
v -0.5 17 4
v -0.5 18 4
v 0.5 17 4
v 0.5 18 4
v -1.5 18 3
v -1.5 19 3
v -0.5 19 3
v -0.5 20 3
v 1.5 18 3
v 1.5 20 3
v -0.5 15 2
v -0.5 17 2
v 0.5 15 2
v 0.5 17 2
v -6.5 11 -1
v -6.5 13 -1
v -5.5 10 -1
v -5.5 11 -1
v -5.5 12 -1
v -5.5 13 -1
v -4.5 11 -1
v -4.5 12 -1
v -2.5 10 -1
v -2.5 11 -1
v 0.5 11 -1
v 0.5 12 -1
v 1.5 12 -1
v 1.5 15 -1
v 2.5 11 -1
v 2.5 12 -1
v 2.5 13 -1
v 2.5 14 -1
v 3.5 12 -1
v 3.5 13 -1
v 3.5 16 -1
v 3.5 17 -1
v 4.5 15 -1
v 4.5 16 -1
v 4.5 17 -1
v 4.5 18 -1
v 4.5 19 -1
v 5.5 14 -1
v 5.5 16 -1
v 5.5 18 -1
v 5.5 19 -1
v -2.5 0 -2
v -2.5 17 -2
v -1.5 15 -2
v -1.5 16 -2
v -0.5 15 -2
v -0.5 16 -2
v 0.5 0 -2
v 0.5 17 -2
v 4.5 16 -2
v 4.5 18 -2
v 6.5 16 -2
v 6.5 18 -2
v -5.5 21 -3
v -5.5 23 -3
v -4.5 21 -3
v -4.5 23 -3
v -4.5 24 -3
v -3.5 17 -3
v -3.5 20 -3
v -3.5 23 -3
v -3.5 24 -3
v -3.5 25 -3
v -2.5 24 -3
v -2.5 25 -3
v -2.5 26 -3
v -1.5 17 -3
v -0.5 17 -3
v 0.5 24 -3
v 0.5 25 -3
v 0.5 26 -3
v 1.5 17 -3
v 1.5 19 -3
v 1.5 23 -3
v 1.5 24 -3
v 1.5 25 -3
v 2.5 19 -3
v 2.5 20 -3
v 2.5 21 -3
v 2.5 23 -3
v 2.5 24 -3
v 3.5 21 -3
v 3.5 23 -3
v -4.5 20 -4
v -4.5 23 -4
v -3.5 20 -4
v -3.5 23 -4
v -3.5 24 -4
v -2.5 23 -4
v -2.5 24 -4
v -2.5 25 -4
v -1.5 15 -4
v -1.5 16 -4
v -0.5 15 -4
v -0.5 16 -4
v 0.5 23 -4
v 0.5 24 -4
v 0.5 25 -4
v 1.5 20 -4
v 1.5 23 -4
v 1.5 24 -4
v 2.5 20 -4
v 2.5 23 -4
v -3.5 20 -5
v -3.5 23 -5
v -2.5 23 -5
v -2.5 24 -5
v -1.5 16 -5
v -1.5 18 -5
v -1.5 20 -5
v -0.5 16 -5
v -0.5 18 -5
v 0.5 20 -5
v 0.5 23 -5
v 0.5 24 -5
v 1.5 20 -5
v 1.5 23 -5
v -1.5 18 -6
v -1.5 20 -6
v 0.5 18 -6
v 0.5 20 -6
v -2.5 0 1
v 0.5 0 1
v -2.5 0 -2
v 0.5 0 -2
v -5.5 10 -0
v -2.5 10 -0
v -5.5 10 -1
v -2.5 10 -1
v -6.5 11 -0
v -5.5 11 -0
v 0.5 11 -0
v 2.5 11 -0
v -6.5 11 -1
v -5.5 11 -1
v 0.5 11 -1
v 2.5 11 -1
v 2.5 12 -0
v 3.5 12 -0
v 2.5 12 -1
v 3.5 12 -1
v -0.5 14 3
v 0.5 14 3
v -0.5 14 1
v 0.5 14 1
v 2.5 14 -0
v 5.5 14 -0
v 2.5 14 -1
v 5.5 14 -1
v -1.5 15 -2
v -0.5 15 -2
v -1.5 15 -4
v -0.5 15 -4
v -0.5 16 5
v 0.5 16 5
v -0.5 16 3
v 0.5 16 3
v 4.5 16 1
v 5.5 16 1
v 3.5 16 -0
v 4.5 16 -0
v 5.5 16 -0
v 6.5 16 -0
v 3.5 16 -1
v 4.5 16 -1
v 5.5 16 -1
v 4.5 16 -2
v 6.5 16 -2
v -1.5 16 -4
v -0.5 16 -4
v -1.5 16 -5
v -0.5 16 -5
v -3.5 17 2
v -0.5 17 2
v 0.5 17 2
v 1.5 17 2
v -2.5 17 1
v 0.5 17 1
v -2.5 17 -2
v 0.5 17 -2
v -3.5 17 -3
v -1.5 17 -3
v -0.5 17 -3
v 1.5 17 -3
v -0.5 18 6
v 1.5 18 6
v -1.5 18 5
v -0.5 18 5
v 0.5 18 5
v -0.5 18 4
v 0.5 18 4
v -1.5 18 3
v 1.5 18 3
v -0.5 18 -4
v 0.5 18 -4
v -1.5 18 -5
v -0.5 18 -5
v -1.5 18 -6
v 0.5 18 -6
v 1.5 19 1
v 2.5 19 1
v 1.5 19 -3
v 2.5 19 -3
v -3.5 20 4
v -1.5 20 4
v -3.5 20 2
v -1.5 20 2
v -4.5 20 -0
v -3.5 20 -0
v -3.5 20 -3
v 2.5 20 -3
v -4.5 20 -4
v -3.5 20 -4
v -1.5 20 -4
v -0.5 20 -4
v 1.5 20 -4
v 2.5 20 -4
v -3.5 20 -5
v -1.5 20 -5
v -0.5 20 -5
v 0.5 20 -5
v 1.5 20 -5
v 2.5 21 -0
v 3.5 21 -0
v -5.5 21 -1
v -4.5 21 -1
v -5.5 21 -3
v -4.5 21 -3
v 2.5 21 -3
v 3.5 21 -3
v -1.5 22 3
v 0.5 22 3
v -1.5 22 2
v 0.5 22 2
v -4.5 22 1
v -3.5 22 1
v -4.5 22 -0
v -3.5 22 -0
v -4.5 11 -0
v -2.5 11 -0
v -4.5 11 -1
v -2.5 11 -1
v -5.5 12 -0
v -4.5 12 -0
v 0.5 12 -0
v 1.5 12 -0
v -5.5 12 -1
v -4.5 12 -1
v 0.5 12 -1
v 1.5 12 -1
v -6.5 13 -0
v -5.5 13 -0
v 2.5 13 -0
v 3.5 13 -0
v -6.5 13 -1
v -5.5 13 -1
v 2.5 13 -1
v 3.5 13 -1
v -0.5 15 2
v 0.5 15 2
v -0.5 15 1
v 0.5 15 1
v 1.5 15 -0
v 4.5 15 -0
v 1.5 15 -1
v 4.5 15 -1
v -1.5 16 -2
v -0.5 16 -2
v -1.5 16 -3
v -0.5 16 -3
v -0.5 17 4
v 0.5 17 4
v -0.5 17 2
v 0.5 17 2
v 3.5 17 -0
v 4.5 17 -0
v 3.5 17 -1
v 4.5 17 -1
v -1.5 17 -3
v -0.5 17 -3
v -1.5 17 -4
v -0.5 17 -4
v 4.5 18 1
v 5.5 18 1
v 4.5 18 -0
v 5.5 18 -0
v 6.5 18 -0
v 4.5 18 -1
v 5.5 18 -1
v 4.5 18 -2
v 6.5 18 -2
v -0.5 19 6
v 1.5 19 6
v -1.5 19 5
v -0.5 19 5
v 1.5 19 5
v -1.5 19 3
v -0.5 19 3
v 4.5 19 -0
v 5.5 19 -0
v 4.5 19 -1
v 5.5 19 -1
v -0.5 19 -4
v 0.5 19 -4
v -0.5 19 -5
v 0.5 19 -5
v -0.5 20 5
v 1.5 20 5
v -0.5 20 3
v 1.5 20 3
v -1.5 20 -5
v 0.5 20 -5
v -1.5 20 -6
v 0.5 20 -6
v -3.5 22 4
v -1.5 22 4
v -1.5 22 3
v -3.5 22 2
v -1.5 22 2
v -3.5 23 2
v -2.5 23 2
v 0.5 23 2
v 1.5 23 2
v -4.5 23 1
v -3.5 23 1
v -2.5 23 1
v 0.5 23 1
v 1.5 23 1
v 2.5 23 1
v -4.5 23 -0
v -3.5 23 -0
v 1.5 23 -0
v 2.5 23 -0
v 3.5 23 -0
v -5.5 23 -1
v -4.5 23 -1
v -5.5 23 -3
v -4.5 23 -3
v -3.5 23 -3
v 1.5 23 -3
v 2.5 23 -3
v 3.5 23 -3
v -4.5 23 -4
v -3.5 23 -4
v -2.5 23 -4
v 0.5 23 -4
v 1.5 23 -4
v 2.5 23 -4
v -3.5 23 -5
v -2.5 23 -5
v 0.5 23 -5
v 1.5 23 -5
v -1.5 24 3
v 0.5 24 3
v -2.5 24 2
v -1.5 24 2
v 0.5 24 2
v -3.5 24 1
v -2.5 24 1
v -1.5 24 1
v 0.5 24 1
v 1.5 24 1
v -4.5 24 -0
v -3.5 24 -0
v -2.5 24 -0
v 0.5 24 -0
v 1.5 24 -0
v 2.5 24 -0
v -4.5 24 -3
v -3.5 24 -3
v -2.5 24 -3
v 0.5 24 -3
v 1.5 24 -3
v 2.5 24 -3
v -3.5 24 -4
v -2.5 24 -4
v 0.5 24 -4
v 1.5 24 -4
v -2.5 24 -5
v 0.5 24 -5
v -1.5 25 2
v 0.5 25 2
v -2.5 25 1
v -1.5 25 1
v -3.5 25 -0
v -2.5 25 -0
v 0.5 25 -0
v 1.5 25 -0
v -3.5 25 -3
v -2.5 25 -3
v 0.5 25 -3
v 1.5 25 -3
v -2.5 25 -4
v 0.5 25 -4
v -2.5 26 -0
v 0.5 26 -0
v -2.5 26 -3
v 0.5 26 -3

# faces
f 3/1/1 2/1/1 1/1/1
f 4/1/1 2/1/1 3/1/1
f 7/1/1 6/1/1 5/1/1
f 8/1/1 6/1/1 7/1/1
f 11/2/1 10/2/1 9/2/1
f 12/2/1 10/2/1 11/2/1
f 15/2/1 14/2/1 13/2/1
f 16/2/1 14/2/1 15/2/1
f 18/2/1 15/2/1 13/2/1
f 19/2/1 18/2/1 17/2/1
f 20/2/1 15/2/1 18/2/1
f 20/2/1 18/2/1 19/2/1
f 21/2/1 15/2/1 20/2/1
f 22/2/1 14/2/1 16/2/1
f 23/2/1 14/2/1 22/2/1
f 24/2/1 21/2/1 20/2/1
f 24/2/1 22/2/1 21/2/1
f 25/2/1 22/2/1 24/2/1
f 29/2/1 27/2/1 26/2/1
f 30/2/1 27/2/1 29/2/1
f 31/2/1 27/2/1 30/2/1
f 34/2/1 29/2/1 28/2/1
f 34/2/1 30/2/1 29/2/1
f 35/2/1 30/2/1 34/2/1
f 36/2/1 30/2/1 35/2/1
f 37/2/1 30/2/1 36/2/1
f 38/2/1 36/2/1 35/2/1
f 39/2/1 36/2/1 38/2/1
f 42/2/1 33/2/1 32/2/1
f 43/2/1 33/2/1 42/2/1
f 44/2/1 40/2/1 39/2/1
f 45/2/1 40/2/1 44/2/1
f 46/2/1 42/2/1 41/2/1
f 47/2/1 42/2/1 46/2/1
f 48/2/1 46/2/1 45/2/1
f 49/2/1 46/2/1 48/2/1
f 52/1/1 51/1/1 50/1/1
f 53/1/1 51/1/1 52/1/1
f 54/1/1 52/1/1 50/1/1
f 55/1/1 51/1/1 53/1/1
f 56/1/1 54/1/1 50/1/1
f 56/1/1 55/1/1 54/1/1
f 57/1/1 51/1/1 55/1/1
f 57/1/1 55/1/1 56/1/1
f 62/2/1 59/2/1 58/2/1
f 63/2/1 59/2/1 62/2/1
f 66/2/1 61/2/1 60/2/1
f 67/2/1 61/2/1 66/2/1
f 68/2/1 64/2/1 63/2/1
f 69/2/1 64/2/1 68/2/1
f 70/2/1 66/2/1 65/2/1
f 71/2/1 66/2/1 70/2/1
f 72/2/1 70/2/1 69/2/1
f 73/2/1 70/2/1 72/2/1
f 76/1/1 75/1/1 74/1/1
f 77/1/1 75/1/1 76/1/1
f 78/1/1 75/1/1 77/1/1
f 80/1/1 79/1/1 78/1/1
f 80/1/1 78/1/1 77/1/1
f 81/1/1 79/1/1 80/1/1
f 84/1/1 79/1/1 81/1/1
f 85/1/1 79/1/1 84/1/1
f 87/2/1 83/2/1 82/2/1
f 88/2/1 83/2/1 87/2/1
f 89/2/1 86/2/1 85/2/1
f 89/2/1 85/2/1 84/2/1
f 90/2/1 86/2/1 89/2/1
f 91/2/1 86/2/1 90/2/1
f 94/2/1 93/2/1 92/2/1
f 95/2/1 93/2/1 94/2/1
f 97/2/1 96/2/1 95/2/1
f 98/2/1 96/2/1 97/2/1
f 101/1/1 100/1/1 99/1/1
f 102/1/1 100/1/1 101/1/1
f 104/1/1 101/1/1 99/1/1
f 105/1/1 104/1/1 103/1/1
f 106/1/1 101/1/1 104/1/1
f 106/1/1 104/1/1 105/1/1
f 108/1/1 105/1/1 103/1/1
f 109/1/1 105/1/1 108/1/1
f 110/2/1 108/2/1 107/2/1
f 111/2/1 108/2/1 110/2/1
f 113/2/1 112/2/1 111/2/1
f 114/2/1 112/2/1 113/2/1
f 117/1/1 116/1/1 115/1/1
f 118/1/1 116/1/1 117/1/1
f 121/2/1 120/2/1 119/2/1
f 122/2/1 120/2/1 121/2/1
f 126/1/1 124/1/1 123/1/1
f 127/1/1 124/1/1 126/1/1
f 129/2/1 126/2/1 125/2/1
f 130/2/1 128/2/1 127/2/1
f 131/2/1 129/2/1 125/2/1
f 131/2/1 130/2/1 129/2/1
f 132/2/1 130/2/1 131/2/1
f 133/2/1 128/2/1 130/2/1
f 133/2/1 130/2/1 132/2/1
f 134/2/1 128/2/1 133/2/1
f 135/2/1 133/2/1 132/2/1
f 136/2/1 133/2/1 135/2/1
f 137/1/2 138/1/2 139/1/2
f 139/1/2 138/1/2 140/1/2
f 141/1/2 142/1/2 143/1/2
f 143/1/2 142/1/2 144/1/2
f 145/2/2 146/2/2 147/2/2
f 147/2/2 146/2/2 148/2/2
f 148/2/2 146/2/2 149/2/2
f 150/1/2 151/1/2 152/1/2
f 152/1/2 151/1/2 153/1/2
f 153/1/2 151/1/2 154/1/2
f 154/1/2 155/1/2 156/1/2
f 153/1/2 154/1/2 156/1/2
f 156/1/2 155/1/2 157/1/2
f 157/1/2 155/1/2 158/1/2
f 158/1/2 155/1/2 159/1/2
f 160/2/2 161/2/2 162/2/2
f 162/2/2 161/2/2 163/2/2
f 164/1/2 165/1/2 166/1/2
f 166/1/2 165/1/2 167/1/2
f 164/1/2 166/1/2 168/1/2
f 167/1/2 165/1/2 169/1/2
f 164/1/2 168/1/2 171/1/2
f 168/1/2 169/1/2 171/1/2
f 170/1/2 171/1/2 172/1/2
f 171/1/2 169/1/2 173/1/2
f 172/1/2 171/1/2 173/1/2
f 170/1/2 172/1/2 175/1/2
f 174/1/2 175/1/2 176/1/2
f 175/1/2 172/1/2 177/1/2
f 176/1/2 175/1/2 177/1/2
f 173/1/2 169/1/2 178/1/2
f 169/1/2 165/1/2 179/1/2
f 178/1/2 169/1/2 179/1/2
f 174/1/2 176/1/2 180/1/2
f 180/1/2 176/1/2 181/1/2
f 182/2/2 183/2/2 184/2/2
f 184/2/2 183/2/2 185/2/2
f 185/2/2 183/2/2 186/2/2
f 186/2/2 183/2/2 187/2/2
f 188/2/2 189/2/2 190/2/2
f 188/2/2 190/2/2 194/2/2
f 190/2/2 191/2/2 194/2/2
f 194/2/2 191/2/2 195/2/2
f 195/2/2 191/2/2 196/2/2
f 192/2/2 193/2/2 199/2/2
f 199/2/2 193/2/2 200/2/2
f 196/2/2 197/2/2 201/2/2
f 195/2/2 196/2/2 201/2/2
f 201/2/2 197/2/2 202/2/2
f 198/2/2 199/2/2 203/2/2
f 203/2/2 199/2/2 204/2/2
f 202/2/2 203/2/2 205/2/2
f 205/2/2 203/2/2 206/2/2
f 209/2/2 210/2/2 211/2/2
f 211/2/2 210/2/2 212/2/2
f 207/2/2 208/2/2 213/2/2
f 213/2/2 208/2/2 214/2/2
f 212/2/2 210/2/2 215/2/2
f 215/2/2 210/2/2 216/2/2
f 207/2/2 213/2/2 219/2/2
f 219/2/2 213/2/2 220/2/2
f 217/2/2 218/2/2 223/2/2
f 223/2/2 218/2/2 224/2/2
f 220/2/2 221/2/2 225/2/2
f 225/2/2 221/2/2 226/2/2
f 222/2/2 223/2/2 227/2/2
f 227/2/2 223/2/2 228/2/2
f 226/2/2 227/2/2 229/2/2
f 229/2/2 227/2/2 230/2/2
f 231/1/2 232/1/2 233/1/2
f 233/1/2 232/1/2 234/1/2
f 235/1/2 236/1/2 237/1/2
f 237/1/2 236/1/2 238/1/2
f 239/2/2 240/2/2 241/2/2
f 239/2/2 241/2/2 243/2/2
f 241/2/2 242/2/2 243/2/2
f 243/2/2 242/2/2 244/2/2
f 239/2/2 243/2/2 245/2/2
f 245/2/2 243/2/2 246/2/2
f 244/2/2 242/2/2 247/2/2
f 247/2/2 242/2/2 248/2/2
f 246/2/2 247/2/2 249/2/2
f 249/2/2 247/2/2 250/2/2
f 251/1/2 252/1/2 253/1/2
f 253/1/2 252/1/2 254/1/2
f 255/2/2 256/2/2 257/2/2
f 257/2/2 256/2/2 258/2/2
f 259/1/2 260/1/2 262/1/2
f 262/1/2 260/1/2 263/1/2
f 261/2/2 262/2/2 264/2/2
f 264/2/2 262/2/2 265/2/2
f 265/2/2 266/2/2 267/2/2
f 267/2/2 266/2/2 268/2/2
f 269/2/2 270/2/2 271/2/2
f 271/2/2 270/2/2 272/2/2
f 275/2/3 274/2/3 273/2/3
f 276/2/3 274/2/3 275/2/3
f 280/2/3 278/2/3 277/2/3
f 281/2/3 278/2/3 280/2/3
f 283/1/3 280/1/3 279/1/3
f 284/1/3 280/1/3 283/1/3
f 285/2/3 282/2/3 281/2/3
f 286/2/3 282/2/3 285/2/3
f 289/2/3 288/2/3 287/2/3
f 290/2/3 288/2/3 289/2/3
f 295/1/3 294/1/3 293/1/3
f 296/1/3 294/1/3 295/1/3
f 297/2/3 292/2/3 291/2/3
f 298/2/3 292/2/3 297/2/3
f 303/2/3 302/2/3 301/2/3
f 305/2/3 300/2/3 299/2/3
f 306/2/3 304/2/3 303/2/3
f 306/2/3 303/2/3 301/2/3
f 307/2/3 304/2/3 306/2/3
f 309/2/3 305/2/3 299/2/3
f 309/2/3 306/2/3 305/2/3
f 310/2/3 306/2/3 309/2/3
f 311/2/3 306/2/3 310/2/3
f 313/2/3 308/2/3 307/2/3
f 314/2/3 308/2/3 313/2/3
f 315/2/3 312/2/3 311/2/3
f 315/2/3 311/2/3 310/2/3
f 316/2/3 312/2/3 315/2/3
f 319/2/3 318/2/3 317/2/3
f 320/2/3 318/2/3 319/2/3
f 324/2/3 321/2/3 320/2/3
f 325/2/3 321/2/3 324/2/3
f 327/2/3 326/2/3 325/2/3
f 328/2/3 326/2/3 327/2/3
f 329/1/3 323/1/3 322/1/3
f 330/1/3 323/1/3 329/1/3
f 331/1/3 329/1/3 322/1/3
f 332/1/3 329/1/3 331/1/3
f 333/1/3 323/1/3 330/1/3
f 334/1/3 323/1/3 333/1/3
f 338/2/3 336/2/3 335/2/3
f 339/2/3 336/2/3 338/2/3
f 340/2/3 338/2/3 337/2/3
f 341/2/3 338/2/3 340/2/3
f 344/2/3 343/2/3 342/2/3
f 345/2/3 343/2/3 344/2/3
f 349/1/3 347/1/3 346/1/3
f 350/1/3 347/1/3 349/1/3
f 351/1/3 347/1/3 350/1/3
f 352/1/3 349/1/3 348/1/3
f 352/1/3 350/1/3 349/1/3
f 353/1/3 350/1/3 352/1/3
f 358/2/3 355/2/3 354/2/3
f 359/2/3 355/2/3 358/2/3
f 360/2/3 357/2/3 356/2/3
f 361/2/3 357/2/3 360/2/3
f 363/1/3 352/1/3 348/1/3
f 364/1/3 352/1/3 363/1/3
f 365/2/3 362/2/3 361/2/3
f 366/2/3 362/2/3 365/2/3
f 371/2/3 367/2/3 366/2/3
f 372/2/3 367/2/3 371/2/3
f 373/1/3 369/1/3 368/1/3
f 376/2/3 371/2/3 370/2/3
f 377/2/3 371/2/3 376/2/3
f 378/1/3 374/1/3 373/1/3
f 378/1/3 373/1/3 368/1/3
f 379/1/3 374/1/3 378/1/3
f 380/1/3 374/1/3 379/1/3
f 381/1/3 374/1/3 380/1/3
f 383/2/3 376/2/3 375/2/3
f 384/2/3 376/2/3 383/2/3
f 385/1/3 380/1/3 379/1/3
f 386/1/3 380/1/3 385/1/3
f 389/2/3 383/2/3 382/2/3
f 390/2/3 383/2/3 389/2/3
f 391/1/3 374/1/3 381/1/3
f 392/2/3 388/2/3 387/2/3
f 393/2/3 388/2/3 392/2/3
f 396/1/3 391/1/3 381/1/3
f 396/1/3 392/1/3 391/1/3
f 397/1/3 392/1/3 396/1/3
f 398/2/3 395/2/3 394/2/3
f 399/2/3 395/2/3 398/2/3
f 400/2/3 398/2/3 397/2/3
f 401/2/3 398/2/3 400/2/3
f 404/2/3 403/2/3 402/2/3
f 405/2/3 403/2/3 404/2/3
f 408/1/3 407/1/3 406/1/3
f 409/1/3 407/1/3 408/1/3
f 413/1/3 411/1/3 410/1/3
f 414/2/3 412/2/3 411/2/3
f 414/1/3 411/1/3 413/1/3
f 415/2/3 412/2/3 414/2/3
f 416/2/3 412/2/3 415/2/3
f 417/2/3 415/2/3 414/2/3
f 418/2/3 415/2/3 417/2/3
f 421/2/3 420/2/3 419/2/3
f 422/2/3 420/2/3 421/2/3
f 423/1/4 424/1/4 425/1/4
f 425/1/4 424/1/4 426/1/4
f 427/2/4 428/2/4 429/2/4
f 427/2/4 429/2/4 431/2/4
f 429/2/4 430/2/4 431/2/4
f 431/2/4 430/2/4 432/2/4
f 433/1/4 434/1/4 435/1/4
f 435/1/4 434/1/4 436/1/4
f 437/1/4 438/1/4 440/1/4
f 440/1/4 438/1/4 441/1/4
f 441/1/4 438/1/4 442/1/4
f 439/1/4 440/1/4 443/1/4
f 440/1/4 441/1/4 443/1/4
f 443/1/4 441/1/4 444/1/4
f 439/1/4 443/1/4 445/1/4
f 445/1/4 443/1/4 446/1/4
f 447/1/4 448/1/4 449/1/4
f 447/1/4 449/1/4 451/1/4
f 449/1/4 450/1/4 451/1/4
f 451/1/4 450/1/4 452/1/4
f 452/1/4 450/1/4 453/1/4
f 453/1/4 450/1/4 454/1/4
f 452/1/4 453/1/4 455/1/4
f 455/1/4 453/1/4 456/1/4
f 454/1/4 450/1/4 459/1/4
f 457/2/4 458/2/4 460/2/4
f 460/2/4 458/2/4 461/2/4
f 454/1/4 459/1/4 464/1/4
f 459/1/4 460/1/4 464/1/4
f 464/1/4 460/1/4 465/1/4
f 462/2/4 463/2/4 466/2/4
f 466/2/4 463/2/4 467/2/4
f 468/1/4 469/1/4 470/1/4
f 470/1/4 469/1/4 471/1/4
f 468/1/4 470/1/4 472/1/4
f 471/1/4 469/1/4 473/1/4
f 468/1/4 472/1/4 474/1/4
f 472/1/4 473/1/4 474/1/4
f 473/1/4 469/1/4 475/1/4
f 474/1/4 473/1/4 475/1/4
f 476/2/4 477/2/4 478/2/4
f 478/2/4 477/2/4 479/2/4
f 480/2/4 481/2/4 482/2/4
f 482/2/4 481/2/4 483/2/4
f 483/2/4 484/2/4 487/2/4
f 487/2/4 484/2/4 488/2/4
f 488/2/4 489/2/4 490/2/4
f 490/2/4 489/2/4 491/2/4
f 485/2/4 486/2/4 493/2/4
f 493/2/4 486/2/4 494/2/4
f 491/2/4 492/2/4 496/2/4
f 496/2/4 492/2/4 497/2/4
f 494/2/4 486/2/4 498/2/4
f 498/2/4 486/2/4 499/2/4
f 495/2/4 496/2/4 501/2/4
f 501/2/4 496/2/4 502/2/4
f 499/2/4 486/2/4 503/2/4
f 503/2/4 486/2/4 504/2/4
f 500/2/4 501/2/4 506/2/4
f 506/2/4 501/2/4 507/2/4
f 505/2/4 506/2/4 508/2/4
f 508/2/4 506/2/4 509/2/4
f 510/2/4 511/2/4 512/2/4
f 512/2/4 511/2/4 513/2/4
f 513/2/4 514/2/4 515/2/4
f 515/2/4 514/2/4 516/2/4
f 518/1/4 519/1/4 520/1/4
f 520/1/4 519/1/4 521/1/4
f 516/2/4 517/2/4 523/2/4
f 523/2/4 517/2/4 524/2/4
f 522/2/4 523/2/4 526/2/4
f 526/2/4 523/2/4 527/2/4
f 525/2/4 526/2/4 528/2/4
f 528/2/4 526/2/4 529/2/4
f 530/2/4 531/2/4 532/2/4
f 530/2/4 532/2/4 536/2/4
f 532/2/4 533/2/4 536/2/4
f 534/1/4 535/1/4 537/1/4
f 537/1/4 535/1/4 538/1/4
f 536/2/4 533/2/4 539/2/4
f 539/2/4 533/2/4 540/2/4
f 540/2/4 533/2/4 541/2/4
f 539/2/4 540/2/4 542/2/4
f 542/2/4 540/2/4 543/2/4
f 544/2/4 545/2/4 546/2/4
f 546/2/4 545/2/4 547/2/4
f 550/1/5 549/1/5 548/1/5
f 551/1/5 549/1/5 550/1/5
f 554/1/5 553/1/5 552/1/5
f 555/1/5 553/1/5 554/1/5
f 560/1/5 557/1/5 556/1/5
f 561/1/5 557/1/5 560/1/5
f 562/1/5 559/1/5 558/1/5
f 563/1/5 559/1/5 562/1/5
f 566/1/5 565/1/5 564/1/5
f 567/1/5 565/1/5 566/1/5
f 570/1/5 569/1/5 568/1/5
f 571/1/5 569/1/5 570/1/5
f 574/1/5 573/1/5 572/1/5
f 575/1/5 573/1/5 574/1/5
f 578/1/5 577/1/5 576/1/5
f 579/1/5 577/1/5 578/1/5
f 582/1/5 581/1/5 580/1/5
f 583/1/5 581/1/5 582/1/5
f 587/2/5 585/2/5 584/2/5
f 588/2/5 585/2/5 587/2/5
f 590/2/5 587/2/5 586/2/5
f 591/2/5 587/2/5 590/2/5
f 592/2/5 589/2/5 588/2/5
f 593/2/5 592/2/5 591/2/5
f 594/2/5 589/2/5 592/2/5
f 594/2/5 592/2/5 593/2/5
f 597/1/5 596/1/5 595/1/5
f 598/1/5 596/1/5 597/1/5
f 603/2/5 600/2/5 599/2/5
f 603/2/5 602/2/5 601/2/5
f 603/2/5 601/2/5 600/2/5
f 604/2/5 602/2/5 603/2/5
f 605/2/5 603/2/5 599/2/5
f 606/2/5 602/2/5 604/2/5
f 607/2/5 605/2/5 599/2/5
f 607/2/5 606/2/5 605/2/5
f 608/2/5 606/2/5 607/2/5
f 609/2/5 606/2/5 608/2/5
f 610/2/5 602/2/5 606/2/5
f 610/2/5 606/2/5 609/2/5
f 614/2/5 612/2/5 611/2/5
f 615/2/5 612/2/5 614/2/5
f 616/2/5 614/2/5 613/2/5
f 617/2/5 612/2/5 615/2/5
f 618/2/5 616/2/5 613/2/5
f 618/2/5 617/2/5 616/2/5
f 619/2/5 612/2/5 617/2/5
f 619/2/5 617/2/5 618/2/5
f 623/2/5 621/2/5 620/2/5
f 624/2/5 623/2/5 622/2/5
f 625/2/5 621/2/5 623/2/5
f 625/2/5 623/2/5 624/2/5
f 628/2/5 627/2/5 626/2/5
f 629/2/5 627/2/5 628/2/5
f 632/2/5 631/2/5 630/2/5
f 633/2/5 631/2/5 632/2/5
f 636/2/5 635/2/5 634/2/5
f 638/2/5 636/2/5 634/2/5
f 638/2/5 637/2/5 636/2/5
f 639/2/5 637/2/5 638/2/5
f 640/2/5 637/2/5 639/2/5
f 641/2/5 637/2/5 640/2/5
f 642/2/5 637/2/5 641/2/5
f 643/2/5 637/2/5 642/2/5
f 644/2/5 640/2/5 639/2/5
f 645/2/5 640/2/5 644/2/5
f 646/2/5 642/2/5 641/2/5
f 647/2/5 642/2/5 646/2/5
f 648/2/5 642/2/5 647/2/5
f 653/2/5 652/2/5 651/2/5
f 654/2/5 652/2/5 653/2/5
f 655/2/5 650/2/5 649/2/5
f 656/2/5 650/2/5 655/2/5
f 659/2/5 658/2/5 657/2/5
f 660/2/5 658/2/5 659/2/5
f 663/2/5 662/2/5 661/2/5
f 664/2/5 662/2/5 663/2/5
f 665/1/6 666/1/6 667/1/6
f 667/1/6 666/1/6 668/1/6
f 669/1/6 670/1/6 673/1/6
f 673/1/6 670/1/6 674/1/6
f 671/1/6 672/1/6 675/1/6
f 675/1/6 672/1/6 676/1/6
f 677/1/6 678/1/6 681/1/6
f 681/1/6 678/1/6 682/1/6
f 679/1/6 680/1/6 683/1/6
f 683/1/6 680/1/6 684/1/6
f 685/1/6 686/1/6 687/1/6
f 687/1/6 686/1/6 688/1/6
f 689/1/6 690/1/6 691/1/6
f 691/1/6 690/1/6 692/1/6
f 693/1/6 694/1/6 695/1/6
f 695/1/6 694/1/6 696/1/6
f 697/1/6 698/1/6 699/1/6
f 699/1/6 698/1/6 700/1/6
f 701/2/6 702/2/6 703/2/6
f 703/2/6 702/2/6 704/2/6
f 705/1/6 706/1/6 707/1/6
f 707/1/6 706/1/6 708/1/6
f 709/2/6 710/2/6 711/2/6
f 711/2/6 710/2/6 712/2/6
f 712/2/6 713/2/6 715/2/6
f 714/2/6 715/2/6 716/2/6
f 715/2/6 713/2/6 717/2/6
f 716/2/6 715/2/6 717/2/6
f 718/2/6 719/2/6 721/2/6
f 721/2/6 719/2/6 722/2/6
f 720/2/6 721/2/6 723/2/6
f 723/2/6 721/2/6 724/2/6
f 725/2/6 726/2/6 727/2/6
f 727/2/6 726/2/6 728/2/6
f 729/2/6 730/2/6 731/2/6
f 731/2/6 730/2/6 732/2/6
f 733/2/6 734/2/6 735/2/6
f 735/2/6 734/2/6 736/2/6
f 737/2/6 738/2/6 739/2/6
f 739/2/6 738/2/6 740/2/6
f 741/2/6 742/2/6 743/2/6
f 741/2/6 743/2/6 744/2/6
f 744/2/6 743/2/6 745/2/6
f 746/2/6 747/2/6 751/2/6
f 751/2/6 747/2/6 752/2/6
f 748/2/6 749/2/6 753/2/6
f 753/2/6 749/2/6 754/2/6
f 750/2/6 751/2/6 756/2/6
f 756/2/6 751/2/6 757/2/6
f 754/2/6 755/2/6 758/2/6
f 758/2/6 755/2/6 759/2/6
f 761/2/6 762/2/6 763/2/6
f 763/2/6 762/2/6 764/2/6
f 759/2/6 760/2/6 767/2/6
f 767/2/6 760/2/6 768/2/6
f 764/2/6 765/2/6 769/2/6
f 769/2/6 765/2/6 770/2/6
f 766/2/6 767/2/6 773/2/6
f 773/2/6 767/2/6 774/2/6
f 770/2/6 771/2/6 775/2/6
f 775/2/6 771/2/6 776/2/6
f 772/2/6 773/2/6 777/2/6
f 777/2/6 773/2/6 778/2/6
f 779/2/6 780/2/6 782/2/6
f 782/2/6 780/2/6 783/2/6
f 781/2/6 782/2/6 785/2/6
f 785/2/6 782/2/6 786/2/6
f 784/2/6 785/2/6 790/2/6
f 790/2/6 785/2/6 791/2/6
f 787/2/6 788/2/6 792/2/6
f 792/2/6 788/2/6 793/2/6
f 789/2/6 790/2/6 795/2/6
f 795/2/6 790/2/6 796/2/6
f 793/2/6 794/2/6 799/2/6
f 799/2/6 794/2/6 800/2/6
f 796/2/6 797/2/6 801/2/6
f 801/2/6 797/2/6 802/2/6
f 798/2/6 799/2/6 803/2/6
f 803/2/6 799/2/6 804/2/6
f 802/2/6 803/2/6 805/2/6
f 805/2/6 803/2/6 806/2/6
f 807/2/6 808/2/6 810/2/6
f 809/2/6 810/2/6 812/2/6
f 810/2/6 808/2/6 813/2/6
f 812/2/6 810/2/6 813/2/6
f 811/2/6 812/2/6 815/2/6
f 815/2/6 812/2/6 816/2/6
f 813/2/6 814/2/6 817/2/6
f 817/2/6 814/2/6 818/2/6
f 816/2/6 817/2/6 819/2/6
f 819/2/6 817/2/6 820/2/6
f 821/2/6 822/2/6 823/2/6
f 823/2/6 822/2/6 824/2/6
